<?xml version="1.0" standalone="no"?>
<!DOCTYPE svg PUBLIC "-//W3C//DTD SVG 20010904//EN"
 "http://www.w3.org/TR/2001/REC-SVG-20010904/DTD/svg10.dtd">
<svg version="1.0" xmlns="http://www.w3.org/2000/svg"
 width="200.000000pt" height="200.000000pt" viewBox="0 0 200.000000 200.000000"
 preserveAspectRatio="xMidYMid meet">
<metadata>
Created by potrace 1.14, written by Peter Selinger 2001-2017
</metadata>
<g transform="translate(0.000000,200.000000) scale(0.100000,-0.100000)"
fill="#000000" stroke="none">
<path d="M794 1283 c-10 -16 -30 -52 -44 -81 l-26 -54 -52 47 c-28 26 -56 44
-61 41 -17 -11 -34 -109 -29 -175 6 -74 32 -142 71 -183 14 -15 23 -29 19 -31
-4 -3 -36 -8 -72 -11 -35 -4 -68 -10 -72 -12 -12 -8 19 -62 65 -111 119 -129
347 -147 476 -37 32 28 56 66 106 169 51 108 70 137 94 150 l31 16 -20 27
c-48 65 -144 85 -200 43 l-28 -20 -74 59 c-72 57 -114 106 -139 163 -7 15 -15
27 -19 27 -4 0 -16 -12 -26 -27z m95 -115 c24 -26 65 -64 92 -85 36 -27 46
-40 38 -49 -8 -10 -18 -7 -45 11 -20 13 -72 38 -117 55 -45 18 -86 36 -91 40
-10 10 6 62 31 99 l16 25 16 -24 c9 -14 36 -46 60 -72z m-160 -42 c25 -13 82
-36 126 -52 63 -22 90 -39 128 -76 26 -26 50 -48 53 -48 2 0 1 12 -2 26 -5 19
0 32 21 54 39 41 87 55 135 41 61 -18 67 -34 31 -78 -16 -21 -48 -82 -71 -135
-74 -171 -143 -223 -301 -223 -79 0 -92 3 -155 35 -46 24 -79 49 -101 78 -18
24 -33 47 -33 51 0 4 34 11 76 17 67 8 80 7 106 -9 19 -11 34 -15 40 -9 6 6
-11 22 -42 42 -89 57 -130 130 -132 233 0 34 2 77 6 95 l8 32 30 -25 c17 -15
52 -37 77 -49z"/>
<path d="M1165 1040 c-4 -6 -3 -16 3 -22 6 -6 12 -6 17 2 4 6 3 16 -3 22 -6 6
-12 6 -17 -2z"/>
</g>
</svg>
